<?xml version="1.0" encoding="utf-8"?>
<svg viewBox="0 0 578.168 568.894" xmlns="http://www.w3.org/2000/svg">
  <defs>
    <clipPath id="clippath">
      <path class="cls-4" d="M1016.37,385.88s-2.96,10.82-6,13.6c-2.73,2.49-6.52,10.96-35.62,15.71,0,0,6.98,107.41-121,112.5-22.59-3.77-42.68-12.38-42.68-12.38l56.65,34.7,77.18,19.83,60-12.26,49.83-36.78,34.43-46.43s14.71-39.13-25.37-76.37c-5.29-3.38-7.42-3.66-11.93-6.85-1.69-1.19-4.56-5.3-6.26-6.52" style="fill: rgb(31, 65, 126); stroke-width: 0px;"/>
    </clipPath>
    <clipPath id="clippath-1">
      <path class="cls-11" d="M993.15,338.18l-1.67,14.27c-.27,2.28.05,4.58.93,6.7l7.71,18.7c.85,2.07,2.79,3.49,5.02,3.69l11.24.99v3.35l29.22-1.27,1.83-18.26-26.35-37.83-27.92,9.65Z" style="fill: rgb(26, 97, 120); stroke-width: 0px;"/>
    </clipPath>
    <clipPath id="clippath-2">
      <path class="cls-12" d="M1041.39,306.65c-2.2-1.39-4.75-2.12-7.35-2.12h-28.1s-15.09-.78-16.54,25.3c-.15,1.57,1.38,10.39-4.6,14.72,0,0,2.89,4.51,11.23-4.19.52.17-3.49,11.69,9.86,14.41.58.35-6.47-16.06,6.83-21.28-.26,3.91-3.65,23.22,18.52,31.04,2.03,1.22,7.88,7.54,12,11.42,4.38,4.12,10.8,5.18,16.28,2.71l7.23-4.3c6-3.57,8.55-10.95,6.01-17.46l-3.43-8.81-.78-12.26-3.71-10.8c-1.02-2.97-3.03-5.51-5.69-7.18l-17.76-11.2Z" style="fill: none; stroke-width: 0px;"/>
    </clipPath>
    <clipPath id="clippath-3">
      <path class="cls-12" d="M1112.83,572.76s-29.6,26.41-9.13,58.24c4.9,5.27,10.49,20.54,56.15,20.15,7.3-.06,19.14-.65,27-2.34,22.99-4.93,73.7-26.25,75,10.23,1.04,9.91.91,43.43-19.57,56.74-.39.26,2.48-9.26.91-15.26.26.13-8.22,13.04-18.2,11.28-.56,0,12.25-11.52,16.75-25.78.58-1.84,1.41-3.99,1.83-5.33.77-2.46,1.93-7.42,1.97-12.91.05-6.37-1.4-13.47-6.67-18.2-2.15.2-2.15-4.89-46.17,8.22-13.89,4.89-54.98,5.87-66.13,3.52-9.4-1.98-27.97-7.43-38.97-27.96-4.62-8.62-6.21-18.59-4.34-28.2,1.83-9.37,10.2-34.15,21.9-44.35,14.87-8.54,7.64,11.93,7.64,11.93Z" style="fill: none; stroke-width: 0px;"/>
    </clipPath>
    <clipPath id="clippath-4">
      <path class="cls-12" d="M1137.01,466.34s19.84,44.17-25.77,69.58c-10.44,6.44-19.61,14.83-20.58,22.53-.38,3.04.21,5.92,3.21,6.57,2.45.54,4.55.11,4.55.11l9.19,9.19s-52.11,15.59-35.15-29.02c3.39-9.91,31.74-36,12.26-43.3-19.48-7.3,52.29-35.67,52.29-35.67Z" style="fill: none; stroke-width: 0px;"/>
    </clipPath>
    <clipPath id="clippath-5">
      <path class="cls-12" d="M980.07,195.18s-2.54-26.62-40.3-25c-10.49.45-20.68,3.55-29.6,9.08-41.17,25.53-110.81,101.88-138.5,88.21-5.09-3.13-6.91-17.48,53.22-64.17,17.61-17.22,15.26-27.78,13.3-36.52,0-1.43-7.43,10.7-12.13,13.04,0,.39,1.7-11.05-8.48-15.75.44.44,2.01,8.99-1.11,17.12-3.73,9.7-14.01,17.19-22.58,23.06-10.88,7.46-28,15.65-50.4,43.65-9.17,11.46-10.35,31.71-3.07,44.45.94,1.64,2.03,3.27,3.3,4.89,6.94,8.85,17.32,14.31,28.49,15.66,26.63,3.2,59.73-5.79,170.17-112.73,11.11-7.57,17.5-8.45,37.68-4.99Z" style="fill: none; stroke-width: 0px;"/>
    </clipPath>
    <clipPath id="clippath-6">
      <path class="cls-12" d="M1135.37,464.97c-13.87-5.84-94.61-35.3-179,72.12-.31.39-15.43,22.12-15.85,22.4-13.27,8.97-32.43,22.35-72.73,5.24,2.6,2.63,13.71,15.94,27.02,20.35,56.61,18.73,82.1,2.88,114.77-28.81,46.08-44.7,77.29-54.29,125.58-53.28,2.36.05,4.33-.52,5.01-3.25.94-3.74,1.37-9.62.94-15.66-.41-5.76-1.62-11.67-2.75-15.66-.43-1.55-1.52-2.81-3-3.44Z" style="fill: none; stroke-width: 0px;"/>
    </clipPath>
    <clipPath id="clippath-7">
      <path class="cls-6" d="M1098.42,565.13s23.08-1.83,37.17-23.74c.86-1.89-.53-1.23-2.36.11-2.34,1.71-5.4,4.52-5.4,4.52l-6.54-6.54s16.53-17.01,23.96-4.49c3.13,9.78-7.65,20.8-7.65,20.8,0,0-11.79,15.9-29.99,18.53-8.02-1.63-9.19-9.19-9.19-9.19Z" style="fill: rgb(251, 187, 143); stroke-width: 0px;"/>
    </clipPath>
    <clipPath id="clippath-8">
      <polygon class="cls-18" points="863.53 372.69 878.69 400.01 850.55 415.37 837.82 388.45 863.53 372.69" style="fill: rgb(246, 133, 33); stroke-width: 0px;"/>
    </clipPath>
    <clipPath id="clippath-9">
      <path class="cls-12" d="M862.93,456.16c-.52.16-14.23,16.87-14.23,16.87l20.48,11.53,3.63-17.84-9.89-10.57Z" style="fill: none; stroke-width: 0px;"/>
    </clipPath>
    <clipPath id="clippath-10">
      <polygon class="cls-14" points="987.45 256.38 998.02 258.65 1001.66 275.18 988.22 282.28 977.57 278.99 973.99 262.73 987.45 256.38" style="fill: rgb(249, 209, 128); stroke-width: 0px;"/>
    </clipPath>
    <clipPath id="clippath-11">
      <polygon class="cls-12" points="908.19 279.28 880.74 302.52 893.47 335.94 918.92 345.02 947.81 320.23 935.08 285.59 908.19 279.28" style="fill: none; stroke-width: 0px;"/>
    </clipPath>
    <clipPath id="clippath-23">
      <polygon class="cls-12" points="312.06 273.4 284.61 296.64 297.34 330.06 322.79 339.14 351.68 314.35 338.95 279.71 312.06 273.4" style="fill: none; stroke-width: 0px;"/>
    </clipPath>
  </defs>
  <g class="cls-26" style="isolation: isolate;" transform="matrix(0.9979389905929565, 0, 0, 0.9979389905929565, -573.01171875, -115.27113342285156)">
    <g id="Layer_7" data-name="Layer 7">
      <g id="Layer_9" data-name="Layer 9">
        <circle class="cls-14" cx="813.105" cy="348.348" r="181.12" style="fill: rgb(249, 209, 128); stroke-width: 0px;"/>
        <path class="cls-32" d="M 953.445 246.948 C 872.495 201.838 770.305 230.888 725.185 311.838 C 689.095 376.598 712.335 458.358 777.095 494.448 C 828.905 523.318 894.305 504.728 923.175 452.918" style="fill: none; stroke: rgb(246, 133, 33); stroke-miterlimit: 10; stroke-width: 15px;"/>
        <g transform="matrix(1, 0, 0, 1, -134.32457, -37.531864)">
          <path class="cls-23" d="M1016.37,385.88s-2.96,10.82-6,13.6c-2.73,2.49-6.52,10.96-35.62,15.71,0,0,6.98,107.41-121,112.5-22.59-3.77-42.68-12.38-42.68-12.38l56.65,34.7,77.18,19.83,60-12.26,49.83-36.78,34.43-46.43s14.71-39.13-25.37-76.37c-5.29-3.38-7.42-3.66-11.93-6.85-1.69-1.19-4.56-5.3-6.26-6.52" style="fill: rgb(31, 65, 126);"/>
          <g class="cls-42" style="clip-path: url('#clippath');">
            <ellipse class="cls-11" cx="993.01" cy="473.96" rx="225.13" ry="128.87" style="fill: rgb(26, 97, 120); stroke-width: 0px;"/>
            <path class="cls-21" d="M877.93,551.26c-32.09,9.37-59.58-56.53-59.58-56.53l54.35-64.68,138.26-67.55,41.59-2.09,6.94,21.42s49.3,111.52-112.25,173.74c-13.3,10.37-69.31-4.3-69.31-4.3Z" style="fill: rgb(0, 52, 73); stroke-width: 0px;"/>
          </g>
        </g>
        <g transform="matrix(1, 0, 0, 1, -134.32457, -37.531864)">
          <path class="cls-33" d="M993.15,338.18l-1.67,14.27c-.27,2.28.05,4.58.93,6.7l7.71,18.7c.85,2.07,2.79,3.49,5.02,3.69l11.24.99v3.35l29.22-1.27,1.83-18.26-26.35-37.83-27.92,9.65Z" style="fill: rgb(26, 97, 120);"/>
          <g class="cls-36" style="clip-path: url('#clippath-1');">
            <ellipse class="cls-11" cx="1008.02" cy="358.91" rx="62.35" ry="64.3" style="fill: rgb(26, 97, 120); stroke-width: 0px;"/>
            <polygon class="cls-21" points="1017.68 369.25 1007.44 382.33 1016.37 382.52 1017.68 369.25" style="fill: rgb(0, 52, 73); stroke-width: 0px;"/>
          </g>
        </g>
        <g class="cls-24" style="clip-path: url('#clippath-2');" transform="matrix(1, 0, 0, 1, -134.32457, -37.531864)">
          <ellipse class="cls-10" cx="1015.85" cy="358.33" rx="78.65" ry="55.37" style="fill: rgb(122, 185, 204); stroke-width: 0px;"/>
          <path class="cls-11" d="M1073.87,353.37s-3.69-7.43-11.52-8.22-11.93,7.37-11.93,7.37c0,0-4.43,7.24,3,11.74,7.43,4.5,15.26-2.72,15.26-2.72,0,0-7.17,11.59-16.17,9.24s-22.57-17.87-3.85-30.04c25.48-16.56,29.74,10.22,29.74,10.22l-4.53,2.4Z" style="fill: rgb(26, 97, 120); stroke-width: 0px;"/>
        </g>
        <g class="cls-45" style="clip-path: url('#clippath-3');" transform="matrix(1, 0, 0, 1, -134.32457, -37.531864)">
          <ellipse class="cls-18" cx="1170.86" cy="658.71" rx="151.83" ry="110.35" style="fill: rgb(246, 133, 33); stroke-width: 0px;"/>
          <path class="cls-14" d="M1098.42,617.31s1.17,34.43,77.86,48.13c4.7,1.57-41.87,18.39-41.87,18.39,0,0-49.8-3.13-51.9-3.13s-34.19-10.96-32.62-27c1.57-16.04-12.52-40.3-6.65-50.87,5.87-10.57,7.43-32.09,20.74-36.39,13.3-4.3,45.23-7.43,45.23-7.43l12.04,5.09s6.9,1.96,8.08,8.61c1.17,6.65-11.35,25.69-11.35,25.69l-19.56,18.91Z" style="fill: rgb(249, 209, 128); stroke-width: 0px;"/>
        </g>
        <g class="cls-37" style="clip-path: url('#clippath-4');" transform="matrix(1, 0, 0, 1, -134.32457, -37.531864)">
          <ellipse class="cls-14" cx="1147.52" cy="592.6" rx="135.98" ry="144.28" style="fill: rgb(249, 209, 128); stroke-width: 0px;"/>
          <path class="cls-18" d="M1078.2,510.04c.78,0,65.18-21.86,63.44,7.09-8.52,10.17,10.13-6.63,10.13-6.63l-5.87-50.24-67.7,15.13v34.65Z" style="fill: rgb(246, 133, 33); stroke-width: 0px;"/>
          <path class="cls-19" d="M1099.59,563.83" style="fill: rgb(247, 150, 73); stroke-width: 0px;"/>
          <path class="cls-18" d="M1101.19,564.17c-.46.15-1.78.82-3.71,1.01-1.74.17-3.39-.39-5.1-.79-3.02-.7-8.92-2.18-14.11-6.57-4.52-3.82-8.91-10.93-9.2-16.73-.78-15.65-12.26,61.6-12.26,61.6l46.96,20.35,15.65-11.48,4.96-30.22-23.18-17.18Z" style="fill: rgb(246, 133, 33); stroke-width: 0px;"/>
        </g>
        <path class="cls-21" d="M 1073.715 595.628 L 1066.075 571.888 C 1065.265 569.378 1063.305 566.798 1060.855 565.018 L 1043.695 552.548 C 1042.005 551.318 1040.215 550.558 1038.605 550.388 C 1036.355 550.148 1033.775 548.758 1031.665 546.648 L 957.995 472.978 C 986.255 439.258 1003.285 395.798 1003.285 348.358 C 1003.285 241.128 916.365 154.208 809.135 154.208 C 701.905 154.208 614.985 241.128 614.985 348.358 C 614.985 455.588 701.905 542.508 809.135 542.508 C 856.565 542.508 900.015 525.488 933.735 497.248 L 1007.405 570.918 C 1009.515 573.028 1010.905 575.598 1011.145 577.858 C 1011.315 579.468 1012.075 581.258 1013.295 582.938 L 1025.735 600.118 C 1027.525 602.588 1030.115 604.558 1032.635 605.368 L 1056.405 612.978 C 1058.595 613.678 1060.495 613.428 1061.635 612.298 L 1073.045 600.888 C 1074.175 599.758 1074.425 597.838 1073.725 595.648 L 1073.715 595.628 Z M 809.135 516.128 C 716.475 516.128 641.355 441.008 641.355 348.348 C 641.355 255.688 716.475 180.568 809.135 180.568 C 901.795 180.568 976.915 255.688 976.915 348.348 C 976.915 441.008 901.795 516.128 809.135 516.128 Z" style="fill: rgb(0, 52, 73); stroke-width: 0px;"/>
        <g class="cls-50" style="clip-path: url('#clippath-5');" transform="matrix(1, 0, 0, 1, -134.32457, -37.531864)">
          <path class="cls-18" d="M633.7,207.11c0,68.58,85.7,117,195.91,117s199.57-55.59,199.57-124.17-89.35-124.17-199.57-124.17-195.91,62.77-195.91,131.35Z" style="fill: rgb(246, 133, 33); stroke-width: 0px;"/>
          <path class="cls-14" d="M749.31,221.05c0,37.4,11.51,48.42,29.59,46.72,47.68-4.49,84.86-66.28,84.86-103.68" style="fill: rgb(249, 209, 128); stroke-width: 0px;"/>
          <path class="cls-18" d="M785.37,181s16.04,26.61,57.52-1.17c41.48-27.78-4.58-39.52-4.58-39.52l-57.52,3.91-11.74,28.96,16.32,7.83Z" style="fill: rgb(246, 133, 33); stroke-width: 0px;"/>
          <path class="cls-14" d="M980.9,185.99c-.53-.18-.96-.56-1.22-1.06-1.61-3.06,8.24-3.8-4.72-7.65s-32.75,16.2-36.59,32.02c-.26,1.06-4.14,11.58-3.13,12,33.3,13.68,50.51-6.43,53.78-9.08.25-.2.44-.45.58-.73l8.33-16.92c.58-1.19,0-2.61-1.25-3.05l-15.78-5.54Z" style="fill: rgb(249, 209, 128); stroke-width: 0px;"/>
        </g>
        <g class="cls-29" style="clip-path: url('#clippath-6');" transform="matrix(1, 0, 0, 1, -134.32457, -37.531864)">
          <ellipse class="cls-18" cx="1017.87" cy="532.91" rx="214.96" ry="161.22" style="fill: rgb(246, 133, 33); stroke-width: 0px;"/>
          <path class="cls-14" d="M873.68,587.05s36.43,17.19,66.85-27.55c9.55-25.97,63.97-90.88,63.97-90.88l-112.56,6.26-70.43,72.76,52.17,39.41Z" style="fill: rgb(249, 209, 128); stroke-width: 0px;"/>
        </g>
        <g transform="matrix(1, 0, 0, 1, -134.32457, -37.531864)">
          <path class="cls-30" d="M1098.42,565.13s23.08-1.83,37.17-23.74c.86-1.89-.53-1.23-2.36.11-2.34,1.71-5.4,4.52-5.4,4.52l-6.54-6.54s16.53-17.01,23.96-4.49c3.13,9.78-7.65,20.8-7.65,20.8,0,0-11.79,15.9-29.99,18.53-8.02-1.63-9.19-9.19-9.19-9.19Z" style="fill: rgb(251, 187, 143);"/>
          <g class="cls-34" style="clip-path: url('#clippath-7');">
            <ellipse class="cls-18" cx="1121.5" cy="552.15" rx="42.65" ry="40.11" style="fill: rgb(246, 133, 33); stroke-width: 0px;"/>
            <path class="cls-14" d="M1153.05,532.59l-18.57-7.43-14.02,12.45,1.83,8.87h8.47l4.33-5.29c.12-.22.57-.43.66-.68.8-2.28,2.18-4.14,4.39-5.12l.94-.42c4.29-1.21,5.29,1.33,5.75.2l6.21-2.59Z" style="fill: rgb(249, 209, 128); stroke-width: 0px;"/>
          </g>
        </g>
        <g transform="matrix(1, 0, 0, 1, -134.32457, -37.531864)">
          <path class="cls-21" d="M795.07,296.58c.21.83.31,1.24.53,2.06.12.45.04.76-.53.86-4.16.8-6.77,1.41-10.09.85-.46-.08-.63-.37-.72-.8-1.22-5.7-1.52-8.81-1.89-15.05-.04-.6.14-.76.45-.77.68-.03,1.49-.3,2.24-.38.34-.04.56.1.62.72.45,5.29.8,7.87,1.78,12.75,2.5-.05,3.89-.28,6.73-.83.57-.11.78.14.9.59Z" style="fill: rgb(0, 52, 73); stroke-width: 0px;"/>
          <path class="cls-21" d="M808.52,294.59c-2.59,1.28-6.89,1.34-8.6-2.43-1.02-2.25-1.51-3.39-2.42-5.74-1.53-3.93,1.19-7.16,3.74-8.24,2.55-1.09,6.28-.79,7.94,2.85.99,2.17,1.5,3.24,2.5,5.42,1.66,3.65-.57,6.87-3.16,8.15ZM802.6,281.62c-1.42.63-2.09,2.01-1.43,3.57.85,2.03,1.29,3.01,2.2,4.98.7,1.51,2.17,1.87,3.61,1.17,1.45-.71,2.01-2.07,1.32-3.55-.9-1.93-1.36-2.89-2.23-4.85-.67-1.51-2.02-1.95-3.46-1.31Z" style="fill: rgb(0, 52, 73); stroke-width: 0px;"/>
          <path class="cls-21" d="M823.35,286.3c-2.14,1.16-5.54.89-7.47-2.79-1.16-2.2-1.72-3.19-2.93-5.12-2.03-3.24-.4-6.78,1.49-8.28,1.89-1.5,5.49-1.71,7.65,2.07,1.29,2.26,1.94,3.42,3.21,5.77,2.14,3.94.2,7.19-1.95,8.35ZM816.19,273.12c-1.08.76-1.34,2.11-.54,3.54,1.04,1.86,1.57,2.82,2.64,4.81.82,1.53,2.09,1.97,3.24,1.33,1.17-.66,1.53-2.05.68-3.62-1.11-2.05-1.67-3.05-2.78-5-.85-1.5-2.15-1.83-3.24-1.05Z" style="fill: rgb(0, 52, 73); stroke-width: 0px;"/>
          <path class="cls-21" d="M834.48,258.9c-.42,3.47-.62,5.18-1.02,8.6,3.71,2.42,5.52,3.65,8.76,5.61.3.18.45.65.11.92-.87.68-1.32,1.02-2.21,1.67-.44.32-.82.24-1.33-.08,0,0-3.66-2.44-5.97-4.01-.12.92-.17,1.38-.29,2.3,1,1.74,1.49,2.6,2.44,4.33.31.56.18.83-.14,1.04-.75.47-1.12.71-1.86,1.16-.36.22-.63.19-.94-.38-3.3-5.92-5.08-8.93-8.62-14.55-.34-.54-.24-.79.12-1.02.75-.46,1.13-.7,1.9-1.16.33-.2.64-.19.98.36,1.33,2.13,1.99,3.21,3.29,5.37.29-3.15.45-4.73.76-7.92.08-.77.19-.9.66-1.17,1.1-.64,1.65-.97,2.75-1.62.39-.23.66.23.61.56Z" style="fill: rgb(0, 52, 73); stroke-width: 0px;"/>
          <path class="cls-21" d="M850.54,263.91c.42.65.63.98,1.06,1.61.25.36.28.67-.16,1.02-2.18,1.7-3.27,2.54-5.29,4.2-.41.34-.64.2-.84-.18-.35-.66-.53-1-.9-1.68-.21-.39-.23-.71.16-1.05.43-.37.65-.56,1.07-.93-1.7-3.23-2.63-4.99-4.65-8.59-.47.32-.7.49-1.17.81-.44.3-.71.12-.96-.31-.45-.77-.67-1.16-1.13-1.94-.26-.43-.29-.78.17-1.07,2.22-1.44,3.32-2.17,5.39-3.69.43-.31.67-.13.9.29.4.76.6,1.14.98,1.89.21.41.24.75-.17,1.07-.42.34-.64.5-1.07.83,1.88,3.54,2.63,5.22,4.54,8.45.46-.36.7-.55,1.17-.92.43-.34.68-.19.92.18Z" style="fill: rgb(0, 52, 73); stroke-width: 0px;"/>
          <path class="cls-21" d="M857.31,240.87c3.11,5.55,4.88,8.11,8.69,12.82.29.35.35.65-.06.97-.66.51-.99.77-1.66,1.29-.46.36-.81.19-1.36-.01-3.69-1.45-5.46-2.22-8.79-3.96,1.83,3.01,2.8,4.44,4.88,7.17.34.45.23.73-.12,1-.76.59-1.14.89-1.91,1.48-.35.27-.65.32-.98-.14-3.46-4.74-4.94-7.31-7.75-12.96-.21-.42-.24-.77.16-1.08.65-.52.98-.78,1.63-1.31.43-.35.72-.12,1.19.16,3.12,1.97,4.74,2.83,8.2,4.47-1.98-2.91-2.91-4.44-4.65-7.64-.29-.53-.18-.83.12-1.09.64-.56.95-.84,1.58-1.41.29-.26.55-.29.85.25Z" style="fill: rgb(0, 52, 73); stroke-width: 0px;"/>
          <path class="cls-21" d="M873.53,237.39c1.03,1.4,1.56,2.09,2.61,3.44,2.45,3.44.86,6.09-1.15,7.36-2.08,1.32-5.74,2.18-8.27-1.09-1.59-2.05-2.36-3.11-3.82-5.29-2.36-3.51-.93-7.41.83-9.1,1.87-1.8,5.21-1.8,7.53,1.52.42.6.38.76,0,1.03-.66.45-.98.68-1.61,1.17-.46.35-.72-.18-1.03-.45-.69-.6-1.73-.85-2.78.07-1.03.91-1.05,2.56-.05,4.01,1.26,1.82,1.91,2.7,3.24,4.43,1.06,1.37,2.43,1.57,3.57.8,1.12-.77,1.4-1.9.07-3.64-.62.41-.93.63-1.54,1.06-.39.28-.68.11-.98-.28-.52-.69-.78-1.04-1.3-1.74-.3-.41-.38-.73,0-1.03,1.43-1.12,2.15-1.66,3.67-2.64.4-.26.7-.05,1.02.38Z" style="fill: rgb(0, 52, 73); stroke-width: 0px;"/>
        </g>
        <path class="cls-21" d="M 863.495 473.588 C 868.925 481.458 871.835 485.978 880.135 493.708 C 880.925 494.448 880.695 495.048 879.965 495.718 C 878.405 497.158 877.625 497.878 876.095 499.318 C 875.375 499.998 874.725 500.218 873.905 499.488 C 869.075 495.158 866.975 492.808 863.425 487.998 C 863.625 491.938 863.795 493.938 864.445 497.818 C 864.505 498.278 864.575 499.058 864.005 499.608 C 863.245 500.348 862.875 500.718 862.145 501.448 C 861.595 501.998 860.895 501.838 860.455 501.748 C 856.775 500.788 855.045 500.248 851.895 498.938 C 855.525 504.098 857.725 506.498 862.975 510.718 C 863.865 511.438 863.785 511.988 863.305 512.588 C 862.235 513.908 861.755 514.548 860.975 515.748 C 860.615 516.298 860.175 516.448 859.245 515.748 C 851.765 510.508 844.985 501.408 841.535 493.048 C 841.165 492.268 841.065 491.638 841.615 491.008 C 842.575 489.928 843.125 489.358 844.325 488.188 C 845.355 487.188 845.965 487.948 846.465 488.188 C 850.285 490.488 852.375 491.468 857.015 493.148 C 856.555 487.538 856.625 484.648 856.725 479.308 C 856.745 478.648 856.475 477.708 857.805 476.638 C 859.355 475.398 860.135 474.778 861.685 473.548 C 862.615 472.808 863.105 472.978 863.505 473.568 L 863.495 473.588 Z" style="fill: rgb(0, 52, 73); stroke-width: 0px;"/>
        <path class="cls-21" d="M 904.355 478.438 C 899.875 481.138 892.415 481.988 888.685 476.368 C 886.455 473.008 885.425 471.448 883.425 467.988 C 880.085 462.208 884.555 455.178 889.025 451.998 C 893.495 448.818 900.415 448.028 904.095 454.478 C 906.295 458.338 907.405 460.268 909.585 463.958 C 913.235 470.128 908.835 475.738 904.365 478.448 L 904.355 478.438 Z M 891.945 457.518 C 889.435 459.218 888.425 461.918 889.835 464.338 C 891.665 467.498 892.575 469.058 894.535 472.058 C 896.045 474.368 898.765 474.698 901.235 473.208 C 903.745 471.698 904.695 469.348 903.255 466.888 C 901.385 463.698 900.435 462.028 898.595 458.678 C 897.175 456.098 894.495 455.788 891.945 457.518 Z" style="fill: rgb(0, 52, 73); stroke-width: 0px;"/>
        <path class="cls-21" d="M 937.155 429.958 C 944.095 436.228 949.805 445.808 953.265 454.428 C 953.695 455.388 953.365 455.788 952.655 456.038 C 951.135 456.578 950.365 456.858 948.795 457.428 C 948.065 457.698 947.505 457.618 947.095 456.648 C 944.645 450.928 943.255 447.718 939.735 441.908 C 939.975 445.478 939.955 447.378 939.765 451.108 C 939.725 451.538 939.615 452.258 938.995 452.508 C 938.155 452.838 937.735 452.998 936.885 453.338 C 936.255 453.588 935.645 453.158 935.265 452.888 C 932.095 450.488 930.445 449.278 927.065 446.928 C 930.305 452.878 931.665 456.058 934.125 461.688 C 934.545 462.638 934.175 463.068 933.405 463.378 C 931.715 464.058 930.865 464.408 929.165 465.098 C 928.395 465.418 927.815 465.368 927.395 464.428 C 923.585 455.628 919.075 446.608 913.715 438.648 C 913.225 437.918 913.165 437.368 914.105 436.948 C 915.715 436.238 916.525 435.888 918.115 435.208 C 919.485 434.628 920.285 435.428 920.965 435.778 C 926.045 438.768 928.545 440.408 933.255 443.788 C 933.075 438.608 932.825 436.048 931.545 431.788 C 931.395 431.268 930.835 430.418 931.975 430.078 C 933.305 429.678 933.945 429.508 935.165 429.208 C 935.905 429.028 936.495 429.348 937.165 429.948 L 937.155 429.958 Z" style="fill: rgb(0, 52, 73); stroke-width: 0px;"/>
        <g transform="matrix(1, 0, 0, 1, -134.32457, -37.531864)">
          <path class="cls-21" d="M888.91,212.27c.79.61,1.18.92,1.94,1.55.42.34.55.67.09,1.08-2.46,2.17-3.88,3.34-6.13,5.14,1.02.91,1.55,1.37,2.59,2.28,2.13-1.62,3.32-2.58,5.37-4.39.45-.4.8-.28,1.19.09.67.64,1,.97,1.61,1.64.35.38.46.71.06,1.09-1.81,1.68-2.97,2.62-5.21,4.27,2.03,1.86,3.02,2.79,4.72,4.8.47.56.42.74-.07,1.07-.84.58-1.28.87-2.2,1.43-.53.32-.88.17-1.21-.2-4.48-4.99-7.59-7.31-11.31-12.41-.28-.38-.4-.66-.17-.87,1.74-1.62,3.79-3.37,7.41-6.54.48-.42.88-.34,1.31,0Z" style="fill: rgb(0, 52, 73); stroke-width: 0px;"/>
          <path class="cls-21" d="M908.55,216.96c-1.97,2.3-5.47,3.95-8.26.67-1.66-1.96-2.54-2.96-4.13-4.97-2.66-3.35-2.18-7.17-.33-9.42,1.85-2.25,6.61-3.85,9.63-.6,1.81,1.94,2.65,2.91,4.11,4.86,2.45,3.25.95,7.15-1.02,9.46ZM898.78,205.77c-1.12,1.24-.83,3.06.38,4.37,1.58,1.7,1.86,2.58,3.39,4.25,1.18,1.29,2.6,1.11,3.74-.15,1.16-1.28,1.38-2.88.25-4.16-1.47-1.66-2.28-2.5-3.93-4.18-1.27-1.29-2.69-1.39-3.83-.13Z" style="fill: rgb(0, 52, 73); stroke-width: 0px;"/>
          <path class="cls-21" d="M928.71,196.96c-.65.61-1.06,1.02-1.97,1.9-.46.45-.84.49-1.49.35-2.01-.43-3.26-.5-5.67-.63-.47,0-.75-.15-1.33-.62-.66-.54-.99-.8-1.65-1.32-.37-.3-.45-.61.12-1.12.2-.18.3-.27.5-.45,1.22-1.1,1.7-2.69.71-3.4-1.1-.79-2.79-.42-3.95.63-1.19,1.08-1.74,1.58-2.64,2.47,2.87,4.04,5.37,5.1,9.23,8.81.45.44.3.8-.14,1.19-.96.87-1.45,1.3-2.39,2.12-.43.38-.78.46-1.23.03-4.67-4.55-5.96-6.75-10.43-11.91-.34-.39-.15-.94.34-1.34,2.16-1.73,2.92-2.29,4.7-3.88,1.92-1.72,3.67-2.41,5.62-2.68,1.69-.24,3.51.09,4.84,1.06,2.18,1.6,1.67,4.48.54,6.21,3.04.17,4.52.36,6.18,1.59.27.22.38.72.11.97Z" style="fill: rgb(0, 52, 73); stroke-width: 0px;"/>
        </g>
        <path class="cls-21" d="M 754.675 357.168 C 754.675 374.348 740.745 388.288 723.555 388.288 C 706.365 388.288 692.435 374.358 692.435 357.168 C 692.435 339.978 706.365 326.048 723.555 326.048 C 740.745 326.048 754.675 339.978 754.675 357.168 M 749.645 357.168" style="fill: rgb(0, 52, 73); stroke-width: 0px;"/>
        <path class="cls-21" d="M 747.735 433.838 C 747.735 444.708 738.925 453.518 728.055 453.518 C 717.185 453.518 708.375 444.708 708.375 433.838 C 708.375 422.968 717.185 414.158 728.055 414.158 C 738.925 414.158 747.735 422.968 747.735 433.838 M 742.695 433.838" style="fill: rgb(0, 52, 73); stroke-width: 0px;"/>
        <path class="cls-21" d="M 828.225 274.618 C 828.225 301.278 806.615 322.888 779.955 322.888 C 753.295 322.888 731.685 301.278 731.685 274.618 C 731.685 247.958 753.295 226.348 779.955 226.348 C 806.615 226.348 828.225 247.958 828.225 274.618 M 823.195 274.618" style="fill: rgb(0, 52, 73); stroke-width: 0px;"/>
        <path class="cls-21" d="M 873.175 231.798 C 873.175 242.668 864.365 251.478 853.495 251.478 C 842.625 251.478 833.815 242.668 833.815 231.798 C 833.815 220.928 842.625 212.118 853.495 212.118 C 864.365 212.118 873.175 220.928 873.175 231.798 M 868.145 231.798" style="fill: rgb(0, 52, 73); stroke-width: 0px;"/>
        <g transform="matrix(1, 0, 0, 1, -134.32457, -37.531864)">
          <polygon class="cls-43" points="863.53 372.69 878.69 400.01 850.55 415.37 837.82 388.45 863.53 372.69" style="fill: rgb(246, 133, 33);"/>
          <g class="cls-46" style="clip-path: url('#clippath-8');">
            <rect class="cls-18" x="829.74" y="370.26" width="59.91" height="53.33" transform="translate(429.35 -446.54) rotate(38.19)" style="fill: rgb(246, 133, 33); stroke-width: 0px;"/>
            <polygon class="cls-14" points="837.82 388.45 850.38 389.64 850.55 415.37 835.19 412.08 823.27 400.34 830.34 381.15 836.77 388.46 837.82 388.45" style="fill: rgb(249, 209, 128); stroke-width: 0px;"/>
            <polygon class="cls-15" points="878.69 400.01 850.38 389.64 863.53 372.69 867.1 369.83 888.55 389.63 878.32 397.83 878.69 400.01" style="fill: rgb(255, 229, 182); stroke-width: 0px;"/>
            <polygon class="cls-18" points="850.38 389.64 850.55 415.37 853.91 424.79 865.56 416.7 878.25 410.77 882.35 401.47 878.69 400.01 850.38 389.64" style="fill: rgb(246, 133, 33); stroke-width: 0px;"/>
          </g>
        </g>
        <g class="cls-41" style="clip-path: url('#clippath-9');" transform="matrix(1, 0, 0, 1, -134.32457, -37.531864)">
          <rect class="cls-18" x="846" y="449.43" width="35.38" height="39.26" style="fill: rgb(246, 133, 33); stroke-width: 0px;"/>
          <path class="cls-15" d="M862.93,456.16l6.25,28.4.81,1.88s4.83.04,5.49-2.97,2.15-18.25,2.15-18.25l-2.11-3.45-5.57-4.64s-6.57-2.94-6.69-2.96-.33,1.99-.33,1.99Z" style="fill: rgb(255, 229, 182); stroke-width: 0px;"/>
        </g>
        <g transform="matrix(1, 0, 0, 1, -134.32457, -37.531864)">
          <polygon class="cls-38" points="987.45 256.38 998.02 258.65 1001.66 275.18 988.22 282.28 977.57 278.99 973.99 262.73 987.45 256.38" style="fill: rgb(249, 209, 128);"/>
          <g class="cls-52" style="clip-path: url('#clippath-10');">
            <rect class="cls-14" x="969.13" y="252.77" width="37.6" height="34.11" transform="translate(-34.91 218.65) rotate(-12.41)" style="fill: rgb(249, 209, 128); stroke-width: 0px;"/>
            <path class="cls-15" d="M973.99,262.73l10.48,2.5,3.71,16.85-6.99,5.44-9.89-4.92-4.58-13.47s2.72-7.31,3.69-7.24,3.59.83,3.59.83Z" style="fill: rgb(255, 229, 182); stroke-width: 0px;"/>
            <path class="cls-18" d="M988.22,282.28l-3.75-17.05,13.55-6.58s7.08,7.71,7.02,7.86.47,14.23.47,14.23c0,0-9.86,1.93-10.16,2.09s-6.26,1-6.26,1l-.86-1.55Z" style="fill: rgb(246, 133, 33); stroke-width: 0px;"/>
          </g>
        </g>
        <g class="cls-2" style="clip-path: url('#clippath-11');" transform="matrix(1, 0, 0, 1, -134.32457, -37.531864)">
          <rect class="cls-14" x="875.55" y="270.84" width="78.91" height="77.73" style="fill: rgb(249, 209, 128); stroke-width: 0px;"/>
          <polygon class="cls-18" points="908.19 279.28 927 278.06 939.73 284.37 935.08 285.59 898.65 287.36 889.04 281.6 899.22 276.07 905.86 276.07 908.19 279.28" style="fill: rgb(246, 133, 33); stroke-width: 0px;"/>
          <path class="cls-14" d="M901.69,308.62l-12.64,15.69s-7.11,8.53-4.12,14.17,22.24,18.34,22.24,18.34l28.88.08,1.49-40.84-13.75-1.38-18.12-3.76-3.98-2.31Z" style="fill: rgb(249, 209, 128); stroke-width: 0px;"/>
          <polygon class="cls-15" points="923.79 314.69 898.65 287.36 935.08 285.59 923.79 314.69" style="fill: rgb(255, 229, 182); stroke-width: 0px;"/>
          <polygon class="cls-14" points="947.81 320.23 923.79 314.69 935.08 285.59 947.81 320.23" style="fill: rgb(249, 209, 128); stroke-width: 0px;"/>
          <polygon class="cls-15" points="918.92 345.02 923.79 314.69 947.81 320.23 941.61 336.38 927.11 344.46 918.92 345.02" style="fill: rgb(255, 229, 182); stroke-width: 0px;"/>
          <polygon class="cls-18" points="923.79 314.69 889.04 324.32 898.65 287.36 923.79 314.69" style="fill: rgb(246, 133, 33); stroke-width: 0px;"/>
          <polygon class="cls-18" points="889.04 324.32 918.92 345.02 914.28 362.34 885.72 358.19 878.09 332.54 889.04 324.32" style="fill: rgb(246, 133, 33); stroke-width: 0px;"/>
        </g>
        <g class="cls-53" style="clip-path: url('#clippath-23');"/>
      </g>
    </g>
    <g id="Layer_8" data-name="Layer 8" class="cls-51" style="display: none;">
      <rect class="cls-22" x="-3107.62" y="-128.74" width="2669.62" height="831.34" style="fill: rgb(2, 2, 2); mix-blend-mode: color; stroke-width: 0px;"/>
    </g>
  </g>
</svg>